<svg xmlns="http://www.w3.org/2000/svg" xmlns:xlink="http://www.w3.org/1999/xlink" width="200" zoomAndPan="magnify" viewBox="0 0 150 74.999997" height="100" preserveAspectRatio="xMidYMid meet" version="1.0"><defs><g/><clipPath id="9c837543c7"><rect x="0" width="146" y="0" height="48"/></clipPath></defs><g transform="matrix(1, 0, 0, 1, 0, 15)"><g clip-path="url(#9c837543c7)"><g fill="#000000" fill-opacity="1"><g transform="translate(0.235351, 30.253725)"><g><path d="M 28.21875 -16.328125 C 28.1875 -16.179688 28.117188 -16.066406 28.015625 -15.984375 C 27.910156 -15.910156 27.796875 -15.875 27.671875 -15.875 C 27.484375 -15.875 27.332031 -15.929688 27.21875 -16.046875 C 27.101562 -16.160156 27.046875 -16.296875 27.046875 -16.453125 C 27.046875 -16.609375 27.0625 -16.757812 27.09375 -16.90625 C 27.125 -17.0625 27.140625 -17.210938 27.140625 -17.359375 C 27.140625 -18.117188 26.90625 -18.796875 26.4375 -19.390625 C 25.976562 -19.992188 25.316406 -20.5 24.453125 -20.90625 C 23.597656 -21.320312 22.554688 -21.640625 21.328125 -21.859375 C 20.109375 -22.078125 18.75 -22.1875 17.25 -22.1875 C 16.101562 -22.1875 14.945312 -22.109375 13.78125 -21.953125 C 12.613281 -21.804688 11.492188 -21.585938 10.421875 -21.296875 C 9.347656 -21.015625 8.34375 -20.65625 7.40625 -20.21875 C 6.46875 -19.789062 5.65625 -19.296875 4.96875 -18.734375 C 4.28125 -18.171875 3.738281 -17.546875 3.34375 -16.859375 C 2.945312 -16.171875 2.75 -15.414062 2.75 -14.59375 C 2.75 -13.957031 2.882812 -13.398438 3.15625 -12.921875 C 3.4375 -12.441406 3.816406 -12.019531 4.296875 -11.65625 C 4.773438 -11.300781 5.335938 -10.992188 5.984375 -10.734375 C 6.628906 -10.484375 7.328125 -10.269531 8.078125 -10.09375 C 8.835938 -9.925781 9.628906 -9.785156 10.453125 -9.671875 C 11.273438 -9.566406 12.097656 -9.476562 12.921875 -9.40625 L 15.328125 -9.203125 C 16.515625 -9.097656 17.578125 -8.988281 18.515625 -8.875 C 19.460938 -8.769531 20.296875 -8.628906 21.015625 -8.453125 C 22.210938 -8.148438 23.09375 -7.71875 23.65625 -7.15625 C 24.226562 -6.59375 24.515625 -5.847656 24.515625 -4.921875 C 24.515625 -4.015625 24.265625 -3.21875 23.765625 -2.53125 C 23.265625 -1.851562 22.582031 -1.28125 21.71875 -0.8125 C 20.863281 -0.34375 19.859375 0.0078125 18.703125 0.25 C 17.554688 0.488281 16.328125 0.609375 15.015625 0.609375 C 13.578125 0.609375 12.316406 0.507812 11.234375 0.3125 C 10.148438 0.125 9.242188 -0.0820312 8.515625 -0.3125 C 7.785156 -0.550781 7.226562 -0.769531 6.84375 -0.96875 C 6.457031 -1.164062 6.25 -1.273438 6.21875 -1.296875 C 6.03125 -1.398438 5.9375 -1.5625 5.9375 -1.78125 C 5.9375 -1.957031 6 -2.097656 6.125 -2.203125 C 6.25 -2.316406 6.382812 -2.375 6.53125 -2.375 C 6.644531 -2.375 6.75 -2.34375 6.84375 -2.28125 C 6.851562 -2.28125 7.03125 -2.191406 7.375 -2.015625 C 7.726562 -1.835938 8.25 -1.640625 8.9375 -1.421875 C 9.625 -1.203125 10.472656 -1.003906 11.484375 -0.828125 C 12.503906 -0.648438 13.691406 -0.5625 15.046875 -0.5625 C 16.378906 -0.5625 17.554688 -0.671875 18.578125 -0.890625 C 19.609375 -1.109375 20.472656 -1.410156 21.171875 -1.796875 C 21.878906 -2.179688 22.410156 -2.632812 22.765625 -3.15625 C 23.117188 -3.6875 23.296875 -4.257812 23.296875 -4.875 C 23.296875 -5.226562 23.234375 -5.535156 23.109375 -5.796875 C 22.984375 -6.066406 22.804688 -6.296875 22.578125 -6.484375 C 22.347656 -6.679688 22.070312 -6.847656 21.75 -6.984375 C 21.4375 -7.117188 21.09375 -7.234375 20.71875 -7.328125 C 20.320312 -7.429688 19.898438 -7.519531 19.453125 -7.59375 C 19.003906 -7.664062 18.539062 -7.726562 18.0625 -7.78125 C 17.582031 -7.832031 17.101562 -7.878906 16.625 -7.921875 C 16.144531 -7.960938 15.671875 -8.003906 15.203125 -8.046875 L 12.796875 -8.25 C 10.910156 -8.40625 9.265625 -8.644531 7.859375 -8.96875 C 6.453125 -9.289062 5.28125 -9.707031 4.34375 -10.21875 C 3.414062 -10.738281 2.71875 -11.351562 2.25 -12.0625 C 1.789062 -12.78125 1.5625 -13.617188 1.5625 -14.578125 C 1.5625 -15.546875 1.78125 -16.4375 2.21875 -17.25 C 2.65625 -18.070312 3.253906 -18.804688 4.015625 -19.453125 C 4.785156 -20.109375 5.679688 -20.675781 6.703125 -21.15625 C 7.722656 -21.644531 8.8125 -22.050781 9.96875 -22.375 C 11.132812 -22.695312 12.335938 -22.9375 13.578125 -23.09375 C 14.828125 -23.25 16.050781 -23.328125 17.25 -23.328125 C 18.75 -23.328125 20.054688 -23.238281 21.171875 -23.0625 C 22.296875 -22.882812 23.253906 -22.648438 24.046875 -22.359375 C 24.835938 -22.078125 25.484375 -21.753906 25.984375 -21.390625 C 26.492188 -21.023438 26.90625 -20.664062 27.21875 -20.3125 C 27.957031 -19.457031 28.328125 -18.476562 28.328125 -17.375 C 28.328125 -17.007812 28.289062 -16.660156 28.21875 -16.328125 Z M 28.21875 -16.328125 "/></g></g></g><g fill="#000000" fill-opacity="1"><g transform="translate(26.380234, 30.253725)"><g><path d="M 2.453125 -1.71875 C 2.671875 -1.414062 2.953125 -1.171875 3.296875 -0.984375 C 3.640625 -0.804688 4.0625 -0.71875 4.5625 -0.71875 C 5.0625 -0.71875 5.519531 -0.835938 5.9375 -1.078125 C 6.351562 -1.328125 6.734375 -1.644531 7.078125 -2.03125 C 7.421875 -2.425781 7.726562 -2.867188 8 -3.359375 C 8.269531 -3.847656 8.515625 -4.335938 8.734375 -4.828125 C 8.785156 -4.941406 8.851562 -5.023438 8.9375 -5.078125 C 9.03125 -5.140625 9.132812 -5.171875 9.25 -5.171875 C 9.425781 -5.171875 9.566406 -5.109375 9.671875 -4.984375 C 9.785156 -4.859375 9.84375 -4.722656 9.84375 -4.578125 C 9.84375 -4.523438 9.835938 -4.476562 9.828125 -4.4375 C 9.816406 -4.40625 9.800781 -4.367188 9.78125 -4.328125 C 9.070312 -2.742188 8.289062 -1.550781 7.4375 -0.75 C 6.59375 0.0390625 5.640625 0.445312 4.578125 0.46875 C 3.890625 0.46875 3.296875 0.332031 2.796875 0.0625 C 2.296875 -0.195312 1.882812 -0.535156 1.5625 -0.953125 C 1.25 -1.378906 1.015625 -1.851562 0.859375 -2.375 C 0.703125 -2.90625 0.625 -3.4375 0.625 -3.96875 C 0.625 -4.5 0.6875 -4.984375 0.8125 -5.421875 C 0.945312 -5.867188 1.132812 -6.257812 1.375 -6.59375 C 1.625 -6.925781 1.914062 -7.1875 2.25 -7.375 C 2.582031 -7.5625 2.953125 -7.65625 3.359375 -7.65625 C 3.597656 -7.65625 3.832031 -7.601562 4.0625 -7.5 C 4.300781 -7.40625 4.515625 -7.265625 4.703125 -7.078125 C 4.890625 -6.898438 5.035156 -6.679688 5.140625 -6.421875 C 5.253906 -6.160156 5.3125 -5.863281 5.3125 -5.53125 C 5.3125 -5.113281 5.238281 -4.71875 5.09375 -4.34375 C 4.957031 -3.96875 4.757812 -3.617188 4.5 -3.296875 C 4.25 -2.972656 3.945312 -2.675781 3.59375 -2.40625 C 3.238281 -2.132812 2.859375 -1.90625 2.453125 -1.71875 Z M 1.984375 -2.71875 C 2.304688 -2.851562 2.597656 -3.023438 2.859375 -3.234375 C 3.128906 -3.441406 3.359375 -3.671875 3.546875 -3.921875 C 3.734375 -4.171875 3.878906 -4.429688 3.984375 -4.703125 C 4.085938 -4.984375 4.140625 -5.257812 4.140625 -5.53125 C 4.140625 -5.84375 4.0625 -6.078125 3.90625 -6.234375 C 3.75 -6.398438 3.566406 -6.484375 3.359375 -6.484375 C 3.078125 -6.484375 2.835938 -6.40625 2.640625 -6.25 C 2.441406 -6.09375 2.28125 -5.890625 2.15625 -5.640625 C 2.03125 -5.398438 1.9375 -5.125 1.875 -4.8125 C 1.820312 -4.507812 1.796875 -4.207031 1.796875 -3.90625 C 1.796875 -3.71875 1.8125 -3.519531 1.84375 -3.3125 C 1.882812 -3.101562 1.929688 -2.90625 1.984375 -2.71875 Z M 1.984375 -2.71875 "/></g></g></g><g fill="#000000" fill-opacity="1"><g transform="translate(34.514543, 30.253725)"><g><path d="M 9.4375 -4.3125 C 9.320312 -4.070312 9.179688 -3.785156 9.015625 -3.453125 C 8.847656 -3.128906 8.65625 -2.789062 8.4375 -2.4375 C 8.21875 -2.082031 7.972656 -1.734375 7.703125 -1.390625 C 7.429688 -1.046875 7.132812 -0.734375 6.8125 -0.453125 C 6.5 -0.179688 6.164062 0.0351562 5.8125 0.203125 C 5.457031 0.378906 5.078125 0.46875 4.671875 0.46875 C 4.046875 0.46875 3.507812 0.273438 3.0625 -0.109375 C 2.613281 -0.492188 2.234375 -0.992188 1.921875 -1.609375 C 1.617188 -2.234375 1.367188 -2.941406 1.171875 -3.734375 C 0.984375 -4.535156 0.835938 -5.347656 0.734375 -6.171875 C 0.628906 -6.992188 0.554688 -7.789062 0.515625 -8.5625 C 0.484375 -9.34375 0.46875 -10.035156 0.46875 -10.640625 C 0.46875 -11.515625 0.492188 -12.414062 0.546875 -13.34375 C 0.609375 -14.28125 0.703125 -15.191406 0.828125 -16.078125 C 0.953125 -16.972656 1.109375 -17.816406 1.296875 -18.609375 C 1.492188 -19.410156 1.722656 -20.113281 1.984375 -20.71875 C 2.242188 -21.320312 2.546875 -21.800781 2.890625 -22.15625 C 3.234375 -22.507812 3.625 -22.6875 4.0625 -22.6875 C 4.40625 -22.6875 4.710938 -22.601562 4.984375 -22.4375 C 5.253906 -22.28125 5.484375 -22.019531 5.671875 -21.65625 C 5.859375 -21.289062 6.003906 -20.816406 6.109375 -20.234375 C 6.210938 -19.660156 6.265625 -18.953125 6.265625 -18.109375 C 6.265625 -17.066406 6.15625 -15.992188 5.9375 -14.890625 C 5.71875 -13.785156 5.421875 -12.671875 5.046875 -11.546875 C 4.679688 -10.429688 4.242188 -9.316406 3.734375 -8.203125 C 3.222656 -7.085938 2.675781 -6.003906 2.09375 -4.953125 C 2.351562 -3.628906 2.703125 -2.59375 3.140625 -1.84375 C 3.578125 -1.09375 4.101562 -0.71875 4.71875 -0.71875 C 5.125 -0.71875 5.519531 -0.878906 5.90625 -1.203125 C 6.289062 -1.535156 6.644531 -1.921875 6.96875 -2.359375 C 7.289062 -2.804688 7.570312 -3.257812 7.8125 -3.71875 C 8.0625 -4.1875 8.253906 -4.5625 8.390625 -4.84375 C 8.441406 -4.945312 8.515625 -5.023438 8.609375 -5.078125 C 8.703125 -5.140625 8.800781 -5.171875 8.90625 -5.171875 C 9.082031 -5.171875 9.222656 -5.109375 9.328125 -4.984375 C 9.441406 -4.859375 9.5 -4.71875 9.5 -4.5625 C 9.5 -4.5 9.476562 -4.414062 9.4375 -4.3125 Z M 1.65625 -10.5625 C 1.65625 -9.894531 1.671875 -9.253906 1.703125 -8.640625 C 1.734375 -8.035156 1.769531 -7.453125 1.8125 -6.890625 C 2.25 -7.734375 2.664062 -8.628906 3.0625 -9.578125 C 3.457031 -10.523438 3.804688 -11.484375 4.109375 -12.453125 C 4.410156 -13.421875 4.648438 -14.382812 4.828125 -15.34375 C 5.015625 -16.300781 5.109375 -17.21875 5.109375 -18.09375 C 5.109375 -19.3125 5.007812 -20.1875 4.8125 -20.71875 C 4.613281 -21.25 4.347656 -21.515625 4.015625 -21.515625 C 3.796875 -21.515625 3.582031 -21.363281 3.375 -21.0625 C 3.175781 -20.757812 2.988281 -20.347656 2.8125 -19.828125 C 2.632812 -19.316406 2.472656 -18.707031 2.328125 -18 C 2.179688 -17.289062 2.054688 -16.53125 1.953125 -15.71875 C 1.859375 -14.914062 1.785156 -14.070312 1.734375 -13.1875 C 1.679688 -12.3125 1.65625 -11.4375 1.65625 -10.5625 Z M 1.65625 -10.5625 "/></g></g></g><g fill="#000000" fill-opacity="1"><g transform="translate(42.306682, 30.253725)"><g><path d="M 2.453125 -1.71875 C 2.671875 -1.414062 2.953125 -1.171875 3.296875 -0.984375 C 3.640625 -0.804688 4.0625 -0.71875 4.5625 -0.71875 C 5.0625 -0.71875 5.519531 -0.835938 5.9375 -1.078125 C 6.351562 -1.328125 6.734375 -1.644531 7.078125 -2.03125 C 7.421875 -2.425781 7.726562 -2.867188 8 -3.359375 C 8.269531 -3.847656 8.515625 -4.335938 8.734375 -4.828125 C 8.785156 -4.941406 8.851562 -5.023438 8.9375 -5.078125 C 9.03125 -5.140625 9.132812 -5.171875 9.25 -5.171875 C 9.425781 -5.171875 9.566406 -5.109375 9.671875 -4.984375 C 9.785156 -4.859375 9.84375 -4.722656 9.84375 -4.578125 C 9.84375 -4.523438 9.835938 -4.476562 9.828125 -4.4375 C 9.816406 -4.40625 9.800781 -4.367188 9.78125 -4.328125 C 9.070312 -2.742188 8.289062 -1.550781 7.4375 -0.75 C 6.59375 0.0390625 5.640625 0.445312 4.578125 0.46875 C 3.890625 0.46875 3.296875 0.332031 2.796875 0.0625 C 2.296875 -0.195312 1.882812 -0.535156 1.5625 -0.953125 C 1.25 -1.378906 1.015625 -1.851562 0.859375 -2.375 C 0.703125 -2.90625 0.625 -3.4375 0.625 -3.96875 C 0.625 -4.5 0.6875 -4.984375 0.8125 -5.421875 C 0.945312 -5.867188 1.132812 -6.257812 1.375 -6.59375 C 1.625 -6.925781 1.914062 -7.1875 2.25 -7.375 C 2.582031 -7.5625 2.953125 -7.65625 3.359375 -7.65625 C 3.597656 -7.65625 3.832031 -7.601562 4.0625 -7.5 C 4.300781 -7.40625 4.515625 -7.265625 4.703125 -7.078125 C 4.890625 -6.898438 5.035156 -6.679688 5.140625 -6.421875 C 5.253906 -6.160156 5.3125 -5.863281 5.3125 -5.53125 C 5.3125 -5.113281 5.238281 -4.71875 5.09375 -4.34375 C 4.957031 -3.96875 4.757812 -3.617188 4.5 -3.296875 C 4.25 -2.972656 3.945312 -2.675781 3.59375 -2.40625 C 3.238281 -2.132812 2.859375 -1.90625 2.453125 -1.71875 Z M 1.984375 -2.71875 C 2.304688 -2.851562 2.597656 -3.023438 2.859375 -3.234375 C 3.128906 -3.441406 3.359375 -3.671875 3.546875 -3.921875 C 3.734375 -4.171875 3.878906 -4.429688 3.984375 -4.703125 C 4.085938 -4.984375 4.140625 -5.257812 4.140625 -5.53125 C 4.140625 -5.84375 4.0625 -6.078125 3.90625 -6.234375 C 3.75 -6.398438 3.566406 -6.484375 3.359375 -6.484375 C 3.078125 -6.484375 2.835938 -6.40625 2.640625 -6.25 C 2.441406 -6.09375 2.28125 -5.890625 2.15625 -5.640625 C 2.03125 -5.398438 1.9375 -5.125 1.875 -4.8125 C 1.820312 -4.507812 1.796875 -4.207031 1.796875 -3.90625 C 1.796875 -3.71875 1.8125 -3.519531 1.84375 -3.3125 C 1.882812 -3.101562 1.929688 -2.90625 1.984375 -2.71875 Z M 1.984375 -2.71875 "/></g></g></g><g fill="#000000" fill-opacity="1"><g transform="translate(50.440991, 30.253725)"><g><path d="M 4.046875 -1.40625 C 4.210938 -1.738281 4.40625 -2.109375 4.625 -2.515625 C 4.84375 -2.929688 5.070312 -3.347656 5.3125 -3.765625 C 5.5625 -4.191406 5.820312 -4.609375 6.09375 -5.015625 C 6.375 -5.429688 6.664062 -5.828125 6.96875 -6.203125 C 7.269531 -6.566406 7.570312 -6.828125 7.875 -6.984375 C 8.1875 -7.148438 8.476562 -7.234375 8.75 -7.234375 C 9.28125 -7.234375 9.675781 -7.035156 9.9375 -6.640625 C 10.195312 -6.242188 10.328125 -5.757812 10.328125 -5.1875 C 10.328125 -5.050781 10.316406 -4.882812 10.296875 -4.6875 C 10.285156 -4.5 10.269531 -4.296875 10.25 -4.078125 C 10.238281 -3.859375 10.222656 -3.632812 10.203125 -3.40625 C 10.191406 -3.1875 10.1875 -2.976562 10.1875 -2.78125 C 10.1875 -2.53125 10.195312 -2.289062 10.21875 -2.0625 C 10.25 -1.84375 10.300781 -1.644531 10.375 -1.46875 C 10.445312 -1.300781 10.550781 -1.164062 10.6875 -1.0625 C 10.820312 -0.96875 11 -0.921875 11.21875 -0.921875 C 11.613281 -0.921875 11.992188 -1.070312 12.359375 -1.375 C 12.734375 -1.675781 13.078125 -2.035156 13.390625 -2.453125 C 13.710938 -2.878906 13.988281 -3.3125 14.21875 -3.75 C 14.457031 -4.1875 14.632812 -4.539062 14.75 -4.8125 C 14.800781 -4.925781 14.875 -5.015625 14.96875 -5.078125 C 15.070312 -5.140625 15.179688 -5.171875 15.296875 -5.171875 C 15.472656 -5.171875 15.613281 -5.101562 15.71875 -4.96875 C 15.832031 -4.84375 15.890625 -4.707031 15.890625 -4.5625 C 15.890625 -4.488281 15.875 -4.414062 15.84375 -4.34375 C 15.800781 -4.257812 15.71875 -4.085938 15.59375 -3.828125 C 15.46875 -3.566406 15.300781 -3.265625 15.09375 -2.921875 C 14.894531 -2.585938 14.660156 -2.234375 14.390625 -1.859375 C 14.117188 -1.484375 13.816406 -1.140625 13.484375 -0.828125 C 13.160156 -0.515625 12.8125 -0.253906 12.4375 -0.046875 C 12.0625 0.160156 11.664062 0.265625 11.25 0.265625 C 10.78125 0.265625 10.398438 0.175781 10.109375 0 C 9.816406 -0.1875 9.585938 -0.425781 9.421875 -0.71875 C 9.253906 -1.019531 9.140625 -1.347656 9.078125 -1.703125 C 9.023438 -2.054688 9 -2.414062 9 -2.78125 C 9 -2.9375 9.003906 -3.113281 9.015625 -3.3125 C 9.035156 -3.507812 9.054688 -3.71875 9.078125 -3.9375 C 9.109375 -4.15625 9.128906 -4.375 9.140625 -4.59375 C 9.160156 -4.8125 9.171875 -5.019531 9.171875 -5.21875 C 9.171875 -5.539062 9.117188 -5.757812 9.015625 -5.875 C 8.910156 -6 8.820312 -6.0625 8.75 -6.0625 C 8.582031 -6.0625 8.390625 -5.960938 8.171875 -5.765625 C 7.960938 -5.578125 7.738281 -5.328125 7.5 -5.015625 C 7.269531 -4.710938 7.03125 -4.363281 6.78125 -3.96875 C 6.539062 -3.582031 6.3125 -3.195312 6.09375 -2.8125 C 5.882812 -2.425781 5.691406 -2.0625 5.515625 -1.71875 C 5.335938 -1.375 5.195312 -1.085938 5.09375 -0.859375 C 4.882812 -0.421875 4.675781 -0.128906 4.46875 0.015625 C 4.257812 0.171875 4.046875 0.25 3.828125 0.25 C 3.523438 0.25 3.28125 0.160156 3.09375 -0.015625 C 2.914062 -0.203125 2.828125 -0.460938 2.828125 -0.796875 C 2.828125 -0.867188 2.835938 -1.007812 2.859375 -1.21875 C 2.878906 -1.4375 2.90625 -1.691406 2.9375 -1.984375 C 2.96875 -2.273438 3 -2.59375 3.03125 -2.9375 C 3.0625 -3.28125 3.09375 -3.617188 3.125 -3.953125 C 3.15625 -4.296875 3.179688 -4.609375 3.203125 -4.890625 C 3.222656 -5.179688 3.234375 -5.425781 3.234375 -5.625 C 3.234375 -5.882812 3.222656 -6.132812 3.203125 -6.375 C 3.179688 -6.613281 3.140625 -6.757812 3.078125 -6.8125 C 2.984375 -6.78125 2.816406 -6.582031 2.578125 -6.21875 C 2.335938 -5.863281 2.035156 -5.238281 1.671875 -4.34375 C 1.617188 -4.226562 1.539062 -4.140625 1.4375 -4.078125 C 1.332031 -4.015625 1.222656 -3.984375 1.109375 -3.984375 C 0.929688 -3.984375 0.789062 -4.039062 0.6875 -4.15625 C 0.582031 -4.28125 0.53125 -4.421875 0.53125 -4.578125 C 0.53125 -4.648438 0.546875 -4.726562 0.578125 -4.8125 C 1.046875 -5.914062 1.484375 -6.726562 1.890625 -7.25 C 2.296875 -7.78125 2.703125 -8.046875 3.109375 -8.046875 C 3.347656 -8.046875 3.550781 -7.984375 3.71875 -7.859375 C 3.882812 -7.742188 4.015625 -7.585938 4.109375 -7.390625 C 4.210938 -7.191406 4.285156 -6.972656 4.328125 -6.734375 C 4.378906 -6.492188 4.40625 -6.25 4.40625 -6 C 4.40625 -5.8125 4.390625 -5.519531 4.359375 -5.125 C 4.335938 -4.738281 4.304688 -4.316406 4.265625 -3.859375 C 4.222656 -3.410156 4.179688 -2.960938 4.140625 -2.515625 C 4.109375 -2.066406 4.078125 -1.695312 4.046875 -1.40625 Z M 4.046875 -1.40625 "/></g></g></g><g fill="#000000" fill-opacity="1"><g transform="translate(64.609931, 30.253725)"><g><path d="M 2.453125 -1.71875 C 2.671875 -1.414062 2.953125 -1.171875 3.296875 -0.984375 C 3.640625 -0.804688 4.0625 -0.71875 4.5625 -0.71875 C 5.0625 -0.71875 5.519531 -0.835938 5.9375 -1.078125 C 6.351562 -1.328125 6.734375 -1.644531 7.078125 -2.03125 C 7.421875 -2.425781 7.726562 -2.867188 8 -3.359375 C 8.269531 -3.847656 8.515625 -4.335938 8.734375 -4.828125 C 8.785156 -4.941406 8.851562 -5.023438 8.9375 -5.078125 C 9.03125 -5.140625 9.132812 -5.171875 9.25 -5.171875 C 9.425781 -5.171875 9.566406 -5.109375 9.671875 -4.984375 C 9.785156 -4.859375 9.84375 -4.722656 9.84375 -4.578125 C 9.84375 -4.523438 9.835938 -4.476562 9.828125 -4.4375 C 9.816406 -4.40625 9.800781 -4.367188 9.78125 -4.328125 C 9.070312 -2.742188 8.289062 -1.550781 7.4375 -0.75 C 6.59375 0.0390625 5.640625 0.445312 4.578125 0.46875 C 3.890625 0.46875 3.296875 0.332031 2.796875 0.0625 C 2.296875 -0.195312 1.882812 -0.535156 1.5625 -0.953125 C 1.25 -1.378906 1.015625 -1.851562 0.859375 -2.375 C 0.703125 -2.90625 0.625 -3.4375 0.625 -3.96875 C 0.625 -4.5 0.6875 -4.984375 0.8125 -5.421875 C 0.945312 -5.867188 1.132812 -6.257812 1.375 -6.59375 C 1.625 -6.925781 1.914062 -7.1875 2.25 -7.375 C 2.582031 -7.5625 2.953125 -7.65625 3.359375 -7.65625 C 3.597656 -7.65625 3.832031 -7.601562 4.0625 -7.5 C 4.300781 -7.40625 4.515625 -7.265625 4.703125 -7.078125 C 4.890625 -6.898438 5.035156 -6.679688 5.140625 -6.421875 C 5.253906 -6.160156 5.3125 -5.863281 5.3125 -5.53125 C 5.3125 -5.113281 5.238281 -4.71875 5.09375 -4.34375 C 4.957031 -3.96875 4.757812 -3.617188 4.5 -3.296875 C 4.25 -2.972656 3.945312 -2.675781 3.59375 -2.40625 C 3.238281 -2.132812 2.859375 -1.90625 2.453125 -1.71875 Z M 1.984375 -2.71875 C 2.304688 -2.851562 2.597656 -3.023438 2.859375 -3.234375 C 3.128906 -3.441406 3.359375 -3.671875 3.546875 -3.921875 C 3.734375 -4.171875 3.878906 -4.429688 3.984375 -4.703125 C 4.085938 -4.984375 4.140625 -5.257812 4.140625 -5.53125 C 4.140625 -5.84375 4.0625 -6.078125 3.90625 -6.234375 C 3.75 -6.398438 3.566406 -6.484375 3.359375 -6.484375 C 3.078125 -6.484375 2.835938 -6.40625 2.640625 -6.25 C 2.441406 -6.09375 2.28125 -5.890625 2.15625 -5.640625 C 2.03125 -5.398438 1.9375 -5.125 1.875 -4.8125 C 1.820312 -4.507812 1.796875 -4.207031 1.796875 -3.90625 C 1.796875 -3.71875 1.8125 -3.519531 1.84375 -3.3125 C 1.882812 -3.101562 1.929688 -2.90625 1.984375 -2.71875 Z M 1.984375 -2.71875 "/></g></g></g><g fill="#000000" fill-opacity="1"><g transform="translate(72.74424, 30.253725)"><g/></g></g><g fill="#000000" fill-opacity="1"><g transform="translate(79.743167, 30.253725)"><g><path d="M 28 -2.53125 C 27.988281 -2.507812 27.925781 -2.421875 27.8125 -2.265625 C 27.695312 -2.109375 27.53125 -1.921875 27.3125 -1.703125 C 27.101562 -1.484375 26.84375 -1.242188 26.53125 -0.984375 C 26.21875 -0.734375 25.84375 -0.5 25.40625 -0.28125 C 24.976562 -0.0703125 24.492188 0.101562 23.953125 0.25 C 23.410156 0.394531 22.816406 0.46875 22.171875 0.46875 C 21.148438 0.46875 20.191406 0.335938 19.296875 0.078125 C 18.410156 -0.171875 17.554688 -0.492188 16.734375 -0.890625 C 15.910156 -1.285156 15.097656 -1.71875 14.296875 -2.1875 C 13.492188 -2.664062 12.679688 -3.132812 11.859375 -3.59375 C 11.347656 -2.738281 10.757812 -2.046875 10.09375 -1.515625 C 9.4375 -0.984375 8.753906 -0.566406 8.046875 -0.265625 C 7.335938 0.0351562 6.632812 0.238281 5.9375 0.34375 C 5.238281 0.457031 4.59375 0.515625 4 0.515625 C 3.425781 0.515625 2.847656 0.453125 2.265625 0.328125 C 1.679688 0.210938 1.148438 0.0195312 0.671875 -0.25 C 0.203125 -0.53125 -0.179688 -0.890625 -0.484375 -1.328125 C -0.785156 -1.773438 -0.9375 -2.332031 -0.9375 -3 C -0.9375 -3.625 -0.789062 -4.1875 -0.5 -4.6875 C -0.21875 -5.1875 0.171875 -5.613281 0.671875 -5.96875 C 1.179688 -6.320312 1.773438 -6.59375 2.453125 -6.78125 C 3.140625 -6.976562 3.878906 -7.078125 4.671875 -7.078125 C 5.253906 -7.078125 5.835938 -7.023438 6.421875 -6.921875 C 7.015625 -6.816406 7.585938 -6.675781 8.140625 -6.5 C 8.703125 -6.320312 9.25 -6.117188 9.78125 -5.890625 C 10.3125 -5.671875 10.8125 -5.453125 11.28125 -5.234375 C 11.34375 -5.410156 11.394531 -5.59375 11.4375 -5.78125 C 11.488281 -5.96875 11.53125 -6.171875 11.5625 -6.390625 C 11.601562 -6.617188 11.628906 -6.867188 11.640625 -7.140625 C 11.660156 -7.421875 11.671875 -7.742188 11.671875 -8.109375 C 11.671875 -8.453125 11.660156 -8.773438 11.640625 -9.078125 C 11.628906 -9.390625 11.613281 -9.726562 11.59375 -10.09375 C 11.582031 -10.46875 11.566406 -10.882812 11.546875 -11.34375 C 11.535156 -11.8125 11.53125 -12.363281 11.53125 -13 C 11.53125 -14.488281 11.671875 -15.84375 11.953125 -17.0625 C 12.242188 -18.28125 12.675781 -19.320312 13.25 -20.1875 C 13.820312 -21.0625 14.53125 -21.738281 15.375 -22.21875 C 16.226562 -22.707031 17.222656 -22.953125 18.359375 -22.953125 C 19.046875 -22.953125 19.695312 -22.84375 20.3125 -22.625 C 20.925781 -22.40625 21.46875 -22.09375 21.9375 -21.6875 C 22.414062 -21.28125 22.789062 -20.796875 23.0625 -20.234375 C 23.332031 -19.679688 23.46875 -19.0625 23.46875 -18.375 C 23.46875 -18 23.414062 -17.609375 23.3125 -17.203125 C 23.207031 -16.796875 23.066406 -16.425781 22.890625 -16.09375 C 22.710938 -15.757812 22.503906 -15.484375 22.265625 -15.265625 C 22.035156 -15.046875 21.789062 -14.9375 21.53125 -14.9375 C 21.382812 -14.9375 21.253906 -14.976562 21.140625 -15.0625 C 21.023438 -15.144531 20.96875 -15.273438 20.96875 -15.453125 C 20.96875 -15.578125 20.992188 -15.679688 21.046875 -15.765625 C 21.109375 -15.859375 21.179688 -15.9375 21.265625 -16 C 21.566406 -16.269531 21.8125 -16.601562 22 -17 C 22.195312 -17.394531 22.296875 -17.851562 22.296875 -18.375 C 22.296875 -18.894531 22.1875 -19.363281 21.96875 -19.78125 C 21.757812 -20.195312 21.472656 -20.550781 21.109375 -20.84375 C 20.753906 -21.144531 20.34375 -21.375 19.875 -21.53125 C 19.40625 -21.695312 18.910156 -21.78125 18.390625 -21.78125 C 17.410156 -21.78125 16.5625 -21.566406 15.84375 -21.140625 C 15.132812 -20.710938 14.546875 -20.113281 14.078125 -19.34375 C 13.609375 -18.570312 13.257812 -17.640625 13.03125 -16.546875 C 12.8125 -15.453125 12.703125 -14.234375 12.703125 -12.890625 C 12.703125 -12.253906 12.707031 -11.691406 12.71875 -11.203125 C 12.738281 -10.710938 12.753906 -10.265625 12.765625 -9.859375 C 12.785156 -9.453125 12.800781 -9.070312 12.8125 -8.71875 C 12.832031 -8.363281 12.84375 -8 12.84375 -7.625 C 12.84375 -7.40625 12.832031 -7.164062 12.8125 -6.90625 C 12.789062 -6.65625 12.757812 -6.394531 12.71875 -6.125 C 12.675781 -5.863281 12.617188 -5.609375 12.546875 -5.359375 C 12.484375 -5.109375 12.414062 -4.878906 12.34375 -4.671875 C 13.125 -4.253906 13.898438 -3.8125 14.671875 -3.34375 C 15.441406 -2.875 16.222656 -2.445312 17.015625 -2.0625 C 17.804688 -1.675781 18.625 -1.351562 19.46875 -1.09375 C 20.3125 -0.84375 21.207031 -0.71875 22.15625 -0.71875 C 22.976562 -0.71875 23.691406 -0.84375 24.296875 -1.09375 C 24.910156 -1.34375 25.414062 -1.617188 25.8125 -1.921875 C 26.21875 -2.222656 26.515625 -2.5 26.703125 -2.75 C 26.898438 -3.007812 27 -3.144531 27 -3.15625 C 27.113281 -3.34375 27.28125 -3.4375 27.5 -3.4375 C 27.675781 -3.4375 27.816406 -3.375 27.921875 -3.25 C 28.035156 -3.125 28.09375 -2.988281 28.09375 -2.84375 C 28.09375 -2.726562 28.0625 -2.625 28 -2.53125 Z M 10.828125 -4.171875 C 10.378906 -4.390625 9.910156 -4.601562 9.421875 -4.8125 C 8.929688 -5.03125 8.425781 -5.21875 7.90625 -5.375 C 7.382812 -5.539062 6.847656 -5.671875 6.296875 -5.765625 C 5.753906 -5.867188 5.21875 -5.921875 4.6875 -5.921875 C 4.070312 -5.921875 3.492188 -5.851562 2.953125 -5.71875 C 2.410156 -5.59375 1.9375 -5.40625 1.53125 -5.15625 C 1.132812 -4.914062 0.816406 -4.617188 0.578125 -4.265625 C 0.347656 -3.910156 0.234375 -3.507812 0.234375 -3.0625 C 0.234375 -2.644531 0.335938 -2.285156 0.546875 -1.984375 C 0.753906 -1.679688 1.03125 -1.425781 1.375 -1.21875 C 1.71875 -1.019531 2.117188 -0.867188 2.578125 -0.765625 C 3.035156 -0.671875 3.515625 -0.625 4.015625 -0.625 C 4.617188 -0.625 5.238281 -0.671875 5.875 -0.765625 C 6.519531 -0.867188 7.144531 -1.050781 7.75 -1.3125 C 8.351562 -1.582031 8.914062 -1.945312 9.4375 -2.40625 C 9.96875 -2.863281 10.429688 -3.453125 10.828125 -4.171875 Z M 10.828125 -4.171875 "/></g></g></g><g fill="#000000" fill-opacity="1"><g transform="translate(108.454323, 30.253725)"><g><path d="M 9.4375 -4.3125 C 9.320312 -4.070312 9.179688 -3.785156 9.015625 -3.453125 C 8.847656 -3.128906 8.65625 -2.789062 8.4375 -2.4375 C 8.21875 -2.082031 7.972656 -1.734375 7.703125 -1.390625 C 7.429688 -1.046875 7.132812 -0.734375 6.8125 -0.453125 C 6.5 -0.179688 6.164062 0.0351562 5.8125 0.203125 C 5.457031 0.378906 5.078125 0.46875 4.671875 0.46875 C 4.046875 0.46875 3.507812 0.273438 3.0625 -0.109375 C 2.613281 -0.492188 2.234375 -0.992188 1.921875 -1.609375 C 1.617188 -2.234375 1.367188 -2.941406 1.171875 -3.734375 C 0.984375 -4.535156 0.835938 -5.347656 0.734375 -6.171875 C 0.628906 -6.992188 0.554688 -7.789062 0.515625 -8.5625 C 0.484375 -9.34375 0.46875 -10.035156 0.46875 -10.640625 C 0.46875 -11.515625 0.492188 -12.414062 0.546875 -13.34375 C 0.609375 -14.28125 0.703125 -15.191406 0.828125 -16.078125 C 0.953125 -16.972656 1.109375 -17.816406 1.296875 -18.609375 C 1.492188 -19.410156 1.722656 -20.113281 1.984375 -20.71875 C 2.242188 -21.320312 2.546875 -21.800781 2.890625 -22.15625 C 3.234375 -22.507812 3.625 -22.6875 4.0625 -22.6875 C 4.40625 -22.6875 4.710938 -22.601562 4.984375 -22.4375 C 5.253906 -22.28125 5.484375 -22.019531 5.671875 -21.65625 C 5.859375 -21.289062 6.003906 -20.816406 6.109375 -20.234375 C 6.210938 -19.660156 6.265625 -18.953125 6.265625 -18.109375 C 6.265625 -17.066406 6.15625 -15.992188 5.9375 -14.890625 C 5.71875 -13.785156 5.421875 -12.671875 5.046875 -11.546875 C 4.679688 -10.429688 4.242188 -9.316406 3.734375 -8.203125 C 3.222656 -7.085938 2.675781 -6.003906 2.09375 -4.953125 C 2.351562 -3.628906 2.703125 -2.59375 3.140625 -1.84375 C 3.578125 -1.09375 4.101562 -0.71875 4.71875 -0.71875 C 5.125 -0.71875 5.519531 -0.878906 5.90625 -1.203125 C 6.289062 -1.535156 6.644531 -1.921875 6.96875 -2.359375 C 7.289062 -2.804688 7.570312 -3.257812 7.8125 -3.71875 C 8.0625 -4.1875 8.253906 -4.5625 8.390625 -4.84375 C 8.441406 -4.945312 8.515625 -5.023438 8.609375 -5.078125 C 8.703125 -5.140625 8.800781 -5.171875 8.90625 -5.171875 C 9.082031 -5.171875 9.222656 -5.109375 9.328125 -4.984375 C 9.441406 -4.859375 9.5 -4.71875 9.5 -4.5625 C 9.5 -4.5 9.476562 -4.414062 9.4375 -4.3125 Z M 1.65625 -10.5625 C 1.65625 -9.894531 1.671875 -9.253906 1.703125 -8.640625 C 1.734375 -8.035156 1.769531 -7.453125 1.8125 -6.890625 C 2.25 -7.734375 2.664062 -8.628906 3.0625 -9.578125 C 3.457031 -10.523438 3.804688 -11.484375 4.109375 -12.453125 C 4.410156 -13.421875 4.648438 -14.382812 4.828125 -15.34375 C 5.015625 -16.300781 5.109375 -17.21875 5.109375 -18.09375 C 5.109375 -19.3125 5.007812 -20.1875 4.8125 -20.71875 C 4.613281 -21.25 4.347656 -21.515625 4.015625 -21.515625 C 3.796875 -21.515625 3.582031 -21.363281 3.375 -21.0625 C 3.175781 -20.757812 2.988281 -20.347656 2.8125 -19.828125 C 2.632812 -19.316406 2.472656 -18.707031 2.328125 -18 C 2.179688 -17.289062 2.054688 -16.53125 1.953125 -15.71875 C 1.859375 -14.914062 1.785156 -14.070312 1.734375 -13.1875 C 1.679688 -12.3125 1.65625 -11.4375 1.65625 -10.5625 Z M 1.65625 -10.5625 "/></g></g></g><g fill="#000000" fill-opacity="1"><g transform="translate(116.246468, 30.253725)"><g><path d="M 5.75 -1.75 C 5.394531 -1.15625 4.972656 -0.6875 4.484375 -0.34375 C 4.003906 0 3.519531 0.171875 3.03125 0.171875 C 2.632812 0.171875 2.28125 0.0976562 1.96875 -0.046875 C 1.664062 -0.191406 1.398438 -0.394531 1.171875 -0.65625 C 0.941406 -0.925781 0.765625 -1.242188 0.640625 -1.609375 C 0.523438 -1.984375 0.46875 -2.40625 0.46875 -2.875 C 0.46875 -3.601562 0.535156 -4.242188 0.671875 -4.796875 C 0.816406 -5.359375 0.972656 -5.828125 1.140625 -6.203125 C 1.304688 -6.585938 1.457031 -6.878906 1.59375 -7.078125 C 1.738281 -7.273438 1.8125 -7.375 1.8125 -7.375 C 1.863281 -7.4375 1.925781 -7.484375 2 -7.515625 C 2.082031 -7.546875 2.164062 -7.5625 2.25 -7.5625 C 2.414062 -7.5625 2.550781 -7.5 2.65625 -7.375 C 2.769531 -7.257812 2.828125 -7.125 2.828125 -6.96875 C 2.828125 -6.90625 2.8125 -6.84375 2.78125 -6.78125 C 2.757812 -6.71875 2.734375 -6.65625 2.703125 -6.59375 C 2.648438 -6.5 2.566406 -6.351562 2.453125 -6.15625 C 2.335938 -5.96875 2.21875 -5.71875 2.09375 -5.40625 C 1.96875 -5.101562 1.859375 -4.738281 1.765625 -4.3125 C 1.679688 -3.894531 1.640625 -3.414062 1.640625 -2.875 C 1.640625 -2.257812 1.757812 -1.796875 2 -1.484375 C 2.238281 -1.171875 2.582031 -1.015625 3.03125 -1.015625 C 3.21875 -1.015625 3.429688 -1.070312 3.671875 -1.1875 C 3.921875 -1.3125 4.160156 -1.492188 4.390625 -1.734375 C 4.628906 -1.984375 4.835938 -2.300781 5.015625 -2.6875 C 5.191406 -3.070312 5.300781 -3.523438 5.34375 -4.046875 L 5.578125 -6.71875 C 5.597656 -6.875 5.664062 -7.003906 5.78125 -7.109375 C 5.894531 -7.210938 6.03125 -7.265625 6.1875 -7.265625 C 6.363281 -7.265625 6.503906 -7.195312 6.609375 -7.0625 C 6.710938 -6.9375 6.765625 -6.789062 6.765625 -6.625 L 6.5625 -4.046875 C 6.539062 -3.828125 6.546875 -3.539062 6.578125 -3.1875 C 6.617188 -2.832031 6.695312 -2.484375 6.8125 -2.140625 C 6.925781 -1.804688 7.097656 -1.515625 7.328125 -1.265625 C 7.554688 -1.023438 7.859375 -0.90625 8.234375 -0.90625 C 8.503906 -0.90625 8.765625 -0.972656 9.015625 -1.109375 C 9.273438 -1.253906 9.523438 -1.4375 9.765625 -1.65625 C 10.003906 -1.882812 10.222656 -2.140625 10.421875 -2.421875 C 10.628906 -2.710938 10.816406 -3.003906 10.984375 -3.296875 C 11.160156 -3.585938 11.3125 -3.863281 11.4375 -4.125 C 11.5625 -4.394531 11.664062 -4.625 11.75 -4.8125 C 11.800781 -4.925781 11.875 -5.015625 11.96875 -5.078125 C 12.0625 -5.140625 12.164062 -5.171875 12.28125 -5.171875 C 12.457031 -5.171875 12.597656 -5.109375 12.703125 -4.984375 C 12.804688 -4.859375 12.859375 -4.722656 12.859375 -4.578125 C 12.859375 -4.492188 12.84375 -4.414062 12.8125 -4.34375 C 12.769531 -4.257812 12.6875 -4.082031 12.5625 -3.8125 C 12.445312 -3.550781 12.296875 -3.25 12.109375 -2.90625 C 11.921875 -2.570312 11.691406 -2.21875 11.421875 -1.84375 C 11.148438 -1.476562 10.847656 -1.132812 10.515625 -0.8125 C 10.179688 -0.5 9.816406 -0.238281 9.421875 -0.03125 C 9.035156 0.164062 8.625 0.265625 8.1875 0.265625 C 7.570312 0.265625 7.0625 0.09375 6.65625 -0.25 C 6.25 -0.601562 5.945312 -1.101562 5.75 -1.75 Z M 5.75 -1.75 "/></g></g></g><g fill="#000000" fill-opacity="1"><g transform="translate(127.398086, 30.253725)"><g><path d="M 9.4375 -4.3125 C 9.320312 -4.070312 9.179688 -3.785156 9.015625 -3.453125 C 8.847656 -3.128906 8.65625 -2.789062 8.4375 -2.4375 C 8.21875 -2.082031 7.972656 -1.734375 7.703125 -1.390625 C 7.429688 -1.046875 7.132812 -0.734375 6.8125 -0.453125 C 6.5 -0.179688 6.164062 0.0351562 5.8125 0.203125 C 5.457031 0.378906 5.078125 0.46875 4.671875 0.46875 C 4.046875 0.46875 3.507812 0.273438 3.0625 -0.109375 C 2.613281 -0.492188 2.234375 -0.992188 1.921875 -1.609375 C 1.617188 -2.234375 1.367188 -2.941406 1.171875 -3.734375 C 0.984375 -4.535156 0.835938 -5.347656 0.734375 -6.171875 C 0.628906 -6.992188 0.554688 -7.789062 0.515625 -8.5625 C 0.484375 -9.34375 0.46875 -10.035156 0.46875 -10.640625 C 0.46875 -11.515625 0.492188 -12.414062 0.546875 -13.34375 C 0.609375 -14.28125 0.703125 -15.191406 0.828125 -16.078125 C 0.953125 -16.972656 1.109375 -17.816406 1.296875 -18.609375 C 1.492188 -19.410156 1.722656 -20.113281 1.984375 -20.71875 C 2.242188 -21.320312 2.546875 -21.800781 2.890625 -22.15625 C 3.234375 -22.507812 3.625 -22.6875 4.0625 -22.6875 C 4.40625 -22.6875 4.710938 -22.601562 4.984375 -22.4375 C 5.253906 -22.28125 5.484375 -22.019531 5.671875 -21.65625 C 5.859375 -21.289062 6.003906 -20.816406 6.109375 -20.234375 C 6.210938 -19.660156 6.265625 -18.953125 6.265625 -18.109375 C 6.265625 -17.066406 6.15625 -15.992188 5.9375 -14.890625 C 5.71875 -13.785156 5.421875 -12.671875 5.046875 -11.546875 C 4.679688 -10.429688 4.242188 -9.316406 3.734375 -8.203125 C 3.222656 -7.085938 2.675781 -6.003906 2.09375 -4.953125 C 2.351562 -3.628906 2.703125 -2.59375 3.140625 -1.84375 C 3.578125 -1.09375 4.101562 -0.71875 4.71875 -0.71875 C 5.125 -0.71875 5.519531 -0.878906 5.90625 -1.203125 C 6.289062 -1.535156 6.644531 -1.921875 6.96875 -2.359375 C 7.289062 -2.804688 7.570312 -3.257812 7.8125 -3.71875 C 8.0625 -4.1875 8.253906 -4.5625 8.390625 -4.84375 C 8.441406 -4.945312 8.515625 -5.023438 8.609375 -5.078125 C 8.703125 -5.140625 8.800781 -5.171875 8.90625 -5.171875 C 9.082031 -5.171875 9.222656 -5.109375 9.328125 -4.984375 C 9.441406 -4.859375 9.5 -4.71875 9.5 -4.5625 C 9.5 -4.5 9.476562 -4.414062 9.4375 -4.3125 Z M 1.65625 -10.5625 C 1.65625 -9.894531 1.671875 -9.253906 1.703125 -8.640625 C 1.734375 -8.035156 1.769531 -7.453125 1.8125 -6.890625 C 2.25 -7.734375 2.664062 -8.628906 3.0625 -9.578125 C 3.457031 -10.523438 3.804688 -11.484375 4.109375 -12.453125 C 4.410156 -13.421875 4.648438 -14.382812 4.828125 -15.34375 C 5.015625 -16.300781 5.109375 -17.21875 5.109375 -18.09375 C 5.109375 -19.3125 5.007812 -20.1875 4.8125 -20.71875 C 4.613281 -21.25 4.347656 -21.515625 4.015625 -21.515625 C 3.796875 -21.515625 3.582031 -21.363281 3.375 -21.0625 C 3.175781 -20.757812 2.988281 -20.347656 2.8125 -19.828125 C 2.632812 -19.316406 2.472656 -18.707031 2.328125 -18 C 2.179688 -17.289062 2.054688 -16.53125 1.953125 -15.71875 C 1.859375 -14.914062 1.785156 -14.070312 1.734375 -13.1875 C 1.679688 -12.3125 1.65625 -11.4375 1.65625 -10.5625 Z M 1.65625 -10.5625 "/></g></g></g><g fill="#000000" fill-opacity="1"><g transform="translate(135.19022, 30.253725)"><g><path d="M 9.4375 -4.3125 C 9.320312 -4.070312 9.179688 -3.785156 9.015625 -3.453125 C 8.847656 -3.128906 8.65625 -2.789062 8.4375 -2.4375 C 8.21875 -2.082031 7.972656 -1.734375 7.703125 -1.390625 C 7.429688 -1.046875 7.132812 -0.734375 6.8125 -0.453125 C 6.5 -0.179688 6.164062 0.0351562 5.8125 0.203125 C 5.457031 0.378906 5.078125 0.46875 4.671875 0.46875 C 4.046875 0.46875 3.507812 0.273438 3.0625 -0.109375 C 2.613281 -0.492188 2.234375 -0.992188 1.921875 -1.609375 C 1.617188 -2.234375 1.367188 -2.941406 1.171875 -3.734375 C 0.984375 -4.535156 0.835938 -5.347656 0.734375 -6.171875 C 0.628906 -6.992188 0.554688 -7.789062 0.515625 -8.5625 C 0.484375 -9.34375 0.46875 -10.035156 0.46875 -10.640625 C 0.46875 -11.515625 0.492188 -12.414062 0.546875 -13.34375 C 0.609375 -14.28125 0.703125 -15.191406 0.828125 -16.078125 C 0.953125 -16.972656 1.109375 -17.816406 1.296875 -18.609375 C 1.492188 -19.410156 1.722656 -20.113281 1.984375 -20.71875 C 2.242188 -21.320312 2.546875 -21.800781 2.890625 -22.15625 C 3.234375 -22.507812 3.625 -22.6875 4.0625 -22.6875 C 4.40625 -22.6875 4.710938 -22.601562 4.984375 -22.4375 C 5.253906 -22.28125 5.484375 -22.019531 5.671875 -21.65625 C 5.859375 -21.289062 6.003906 -20.816406 6.109375 -20.234375 C 6.210938 -19.660156 6.265625 -18.953125 6.265625 -18.109375 C 6.265625 -17.066406 6.15625 -15.992188 5.9375 -14.890625 C 5.71875 -13.785156 5.421875 -12.671875 5.046875 -11.546875 C 4.679688 -10.429688 4.242188 -9.316406 3.734375 -8.203125 C 3.222656 -7.085938 2.675781 -6.003906 2.09375 -4.953125 C 2.351562 -3.628906 2.703125 -2.59375 3.140625 -1.84375 C 3.578125 -1.09375 4.101562 -0.71875 4.71875 -0.71875 C 5.125 -0.71875 5.519531 -0.878906 5.90625 -1.203125 C 6.289062 -1.535156 6.644531 -1.921875 6.96875 -2.359375 C 7.289062 -2.804688 7.570312 -3.257812 7.8125 -3.71875 C 8.0625 -4.1875 8.253906 -4.5625 8.390625 -4.84375 C 8.441406 -4.945312 8.515625 -5.023438 8.609375 -5.078125 C 8.703125 -5.140625 8.800781 -5.171875 8.90625 -5.171875 C 9.082031 -5.171875 9.222656 -5.109375 9.328125 -4.984375 C 9.441406 -4.859375 9.5 -4.71875 9.5 -4.5625 C 9.5 -4.5 9.476562 -4.414062 9.4375 -4.3125 Z M 1.65625 -10.5625 C 1.65625 -9.894531 1.671875 -9.253906 1.703125 -8.640625 C 1.734375 -8.035156 1.769531 -7.453125 1.8125 -6.890625 C 2.25 -7.734375 2.664062 -8.628906 3.0625 -9.578125 C 3.457031 -10.523438 3.804688 -11.484375 4.109375 -12.453125 C 4.410156 -13.421875 4.648438 -14.382812 4.828125 -15.34375 C 5.015625 -16.300781 5.109375 -17.21875 5.109375 -18.09375 C 5.109375 -19.3125 5.007812 -20.1875 4.8125 -20.71875 C 4.613281 -21.25 4.347656 -21.515625 4.015625 -21.515625 C 3.796875 -21.515625 3.582031 -21.363281 3.375 -21.0625 C 3.175781 -20.757812 2.988281 -20.347656 2.8125 -19.828125 C 2.632812 -19.316406 2.472656 -18.707031 2.328125 -18 C 2.179688 -17.289062 2.054688 -16.53125 1.953125 -15.71875 C 1.859375 -14.914062 1.785156 -14.070312 1.734375 -13.1875 C 1.679688 -12.3125 1.65625 -11.4375 1.65625 -10.5625 Z M 1.65625 -10.5625 "/></g></g></g></g></g></svg>